<?xml version="1.0" standalone="no"?>
<!DOCTYPE svg PUBLIC "-//W3C//DTD SVG 20010904//EN"
 "http://www.w3.org/TR/2001/REC-SVG-20010904/DTD/svg10.dtd">
<svg version="1.0" xmlns="http://www.w3.org/2000/svg"
 width="1474.000000pt" height="1474.000000pt" viewBox="0 0 1474.000000 1474.000000"
 preserveAspectRatio="xMidYMid meet">
<metadata>
Created by potrace 1.11, written by Peter Selinger 2001-2013
</metadata>
<g transform="translate(0.000000,1474.000000) scale(0.100000,-0.100000)"
fill="#000000" stroke="none">
<path d="M7230 13722 c-80 -46 -296 -171 -480 -277 -184 -106 -386 -222 -449
-259 -62 -36 -116 -66 -118 -66 -3 0 -17 -8 -31 -18 -15 -11 -54 -34 -87 -52
-61 -34 -132 -74 -195 -112 -52 -30 -568 -327 -619 -356 -24 -13 -104 -60
-178 -103 -75 -43 -136 -79 -138 -79 -2 0 -65 -37 -141 -81 -77 -45 -157 -92
-179 -104 -22 -12 -125 -71 -230 -132 -172 -99 -1206 -695 -1630 -938 -240
-138 -338 -194 -355 -205 -8 -5 -115 -66 -238 -137 -122 -70 -242 -139 -266
-153 -24 -14 -53 -32 -65 -40 l-21 -15 0 -3220 c0 -1771 0 -3239 0 -3263 0
-24 4 -41 9 -38 5 4 11 2 13 -3 2 -8 133 -85 473 -281 17 -9 65 -38 108 -64
43 -25 81 -46 83 -46 3 0 17 -8 32 -19 15 -10 104 -62 197 -116 94 -54 211
-121 260 -150 50 -29 205 -119 345 -200 140 -81 365 -212 500 -290 135 -78
443 -257 685 -398 242 -140 456 -264 475 -276 19 -11 49 -28 65 -37 17 -9 253
-146 525 -304 272 -158 554 -321 625 -362 72 -41 195 -113 275 -160 145 -85
474 -276 690 -401 19 -11 49 -28 65 -38 17 -11 37 -22 45 -26 8 -4 39 -21 69
-39 l54 -33 46 25 c48 26 54 30 138 82 30 17 55 32 57 32 2 0 55 30 117 66
143 83 481 278 619 357 124 71 122 70 315 182 83 48 168 97 190 110 200 114
1106 638 1170 676 17 10 41 24 55 32 20 11 896 515 1056 608 22 13 107 62 188
109 81 47 161 93 179 104 18 10 149 86 292 168 143 83 362 209 488 282 125 72
242 139 260 150 17 10 115 66 217 124 102 58 193 112 202 120 16 14 12 18 -48
53 -37 22 -68 39 -70 39 -2 0 -27 15 -56 33 -29 19 -73 45 -98 59 -58 33 -115
66 -385 223 -121 70 -233 136 -250 145 -16 10 -68 40 -115 67 -128 75 -517
302 -580 338 -30 18 -71 42 -91 53 l-35 22 -59 -35 c-32 -20 -60 -33 -62 -31
-3 2 18 17 46 33 28 15 52 35 52 43 1 8 2 1011 3 2229 l1 2214 47 26 c25 14
160 92 300 172 139 80 341 196 448 257 107 62 202 116 210 121 8 6 115 67 238
138 252 144 246 141 400 230 107 62 112 66 90 78 -13 6 -95 54 -183 105 -88
52 -169 99 -180 104 -11 6 -51 30 -90 53 -74 44 -1261 733 -1336 776 -24 13
-278 161 -564 327 -286 167 -533 311 -550 320 -16 10 -86 50 -155 90 -68 40
-138 81 -155 90 -94 54 -231 133 -240 140 -5 4 -30 18 -55 32 -25 14 -198 114
-385 223 -187 109 -358 208 -380 220 -22 12 -65 37 -95 55 -30 18 -237 138
-460 268 -223 129 -448 260 -500 290 -52 31 -104 61 -115 67 -11 6 -47 26 -80
45 -33 19 -64 35 -70 35 -5 1 -75 -36 -155 -83z m335 -2042 c3 -6 -1 -7 -9 -4
-18 7 -21 14 -7 14 6 0 13 -4 16 -10z m50 -30 c3 -6 -1 -7 -9 -4 -18 7 -21 14
-7 14 6 0 13 -4 16 -10z m370 -218 c-3 -3 -11 0 -18 7 -9 10 -8 11 6 5 10 -3
15 -9 12 -12z m65 -38 c0 -2 -9 0 -20 6 -11 6 -20 13 -20 16 0 2 9 0 20 -6 11
-6 20 -13 20 -16z m210 -120 c0 -2 -9 0 -20 6 -11 6 -20 13 -20 16 0 2 9 0 20
-6 11 -6 20 -13 20 -16z m135 -74 c3 -6 -1 -7 -9 -4 -18 7 -21 14 -7 14 6 0
13 -4 16 -10z m55 -36 c0 -2 -9 0 -20 6 -11 6 -20 13 -20 16 0 2 9 0 20 -6 11
-6 20 -13 20 -16z m55 -32 c-3 -3 -11 0 -18 7 -9 10 -8 11 6 5 10 -3 15 -9 12
-12z m290 -170 c-3 -3 -11 0 -18 7 -9 10 -8 11 6 5 10 -3 15 -9 12 -12z m329
-191 c-2 -3 -12 3 -22 13 -16 17 -16 18 5 5 12 -7 20 -15 17 -18z m171 -91 c3
-6 -1 -7 -9 -4 -18 7 -21 14 -7 14 6 0 13 -4 16 -10z m-5785 -5584 c0 -3 -14
-11 -30 -20 -17 -8 -28 -10 -24 -5 3 6 16 14 28 19 26 11 26 11 26 6z m-90
-56 c-28 -21 -109 -67 -99 -56 9 10 113 75 119 76 3 0 -6 -9 -20 -20z m7710
-24 c0 -2 -91 -57 -202 -122 -112 -64 -224 -130 -250 -145 -27 -16 -48 -25
-48 -21 0 4 31 24 68 44 38 21 149 85 248 142 186 110 184 109 184 102z
m-7840 -56 c-14 -11 -29 -20 -35 -20 -5 0 4 9 20 20 38 25 48 25 15 0z m-55
-30 c-3 -5 -16 -15 -28 -21 -19 -9 -19 -8 3 10 28 23 34 26 25 11z m-60 -38
c-18 -15 -85 -54 -85 -48 0 3 19 16 43 30 43 26 59 33 42 18z m-95 -57 c0 -2
-13 -11 -30 -20 -38 -19 -40 -11 -2 9 31 17 32 18 32 11z m-74 -44 c-7 -11
-76 -52 -76 -46 0 4 70 53 78 54 2 1 1 -3 -2 -8z m-87 -55 c-14 -12 -89 -55
-89 -51 0 6 73 54 84 54 5 1 7 -1 5 -3z m7700 -20 c-3 -3 -300 -178 -364 -214
-5 -3 -4 2 4 11 7 9 17 17 21 17 4 0 79 42 166 94 135 80 192 110 173 92z
m-7799 -41 c0 -2 -13 -11 -30 -20 -38 -19 -40 -11 -2 9 31 17 32 18 32 11z
m-70 -39 c0 -1 -22 -17 -50 -34 -27 -17 -50 -29 -50 -26 0 4 90 64 97 64 2 0
3 -2 3 -4z m-150 -96 c-14 -11 -29 -20 -35 -20 -5 0 4 9 20 20 38 25 48 25 15
0z m-69 -38 c-38 -27 -107 -66 -96 -55 12 13 108 73 115 72 3 0 -6 -8 -19 -17z
m7709 -6 c0 -2 -42 -27 -92 -56 -111 -63 -115 -66 -106 -55 7 7 189 115 196
115 1 0 2 -2 2 -4z m-7855 -84 c-18 -15 -85 -54 -85 -48 0 3 19 16 43 30 43
26 59 33 42 18z m7630 -48 c-11 -9 -87 -54 -170 -101 -82 -47 -163 -94 -178
-105 -16 -11 -31 -18 -34 -15 -2 3 17 18 44 33 26 15 71 41 98 57 28 17 70 41
94 55 25 14 70 40 100 58 60 35 79 43 46 18z m-7730 -12 c-18 -15 -85 -54 -85
-48 0 3 19 16 43 30 43 26 59 33 42 18z m-110 -68 c-24 -18 -83 -50 -73 -39
10 10 81 54 88 54 3 0 -4 -7 -15 -15z m-90 -54 c-3 -6 -21 -17 -38 -26 -36
-19 -31 -9 10 17 34 21 36 22 28 9z m-90 -56 c-26 -20 -55 -36 -55 -30 0 5 63
46 70 46 3 -1 -4 -8 -15 -16z m7620 -43 c-11 -9 -338 -201 -420 -246 -101 -55
-26 -5 100 68 72 41 171 99 220 130 82 50 124 71 100 48z m-7720 -17 c-26 -20
-55 -36 -55 -30 0 5 63 46 70 46 3 -1 -4 -8 -15 -16z m7240 -263 c-17 -14
-668 -391 -671 -388 -4 3 667 397 675 397 3 0 1 -4 -4 -9z m-695 -405 c-8 -7
-89 -56 -180 -108 -173 -100 -321 -186 -380 -220 -19 -12 -28 -14 -20 -6 8 8
62 42 120 75 185 106 424 245 445 259 25 18 34 18 15 0z m-601 -350 c-4 -3
-214 -127 -364 -213 -33 -19 -55 -30 -49 -24 13 14 396 239 408 240 5 1 7 -1
5 -3z"/>
</g>
</svg>
