<svg xmlns="http://www.w3.org/2000/svg" viewBox="0 0 149.8 173.5"><linearGradient id="a" gradientUnits="userSpaceOnUse" x1="22.764" y1="56.765" x2="126.097" y2="56.765"><stop offset="0" stop-color="#322520"/><stop offset=".998" stop-color="#322520"/></linearGradient><path fill="url(#a)" d="M126.1 56.9L74.9 86.4 22.8 56.8l51.7-29.7z"/><linearGradient id="b" gradientUnits="userSpaceOnUse" x1="113.469" y1="124.168" x2="87.482" y2="79.158"><stop offset=".002" stop-color="#45322b"/><stop offset=".999" stop-color="#64564e"/></linearGradient><path fill="url(#b)" d="M126.1 56.9L74.9 86.4v60l51.3-29.8z"/><linearGradient id="c" gradientUnits="userSpaceOnUse" x1="35.927" y1="123.946" x2="61.913" y2="78.937"><stop offset="0" stop-color="#625754"/><stop offset="1" stop-color="#8c8380"/></linearGradient><path fill="url(#c)" d="M22.8 56.8l52.1 29.6v60l-52.1-30.1z"/><linearGradient id="d" gradientUnits="userSpaceOnUse" x1="37.578" y1="5.743" x2="112.501" y2="80.666"><stop offset=".003" stop-color="#a49a92"/><stop offset=".189" stop-color="#a79d95"/><stop offset=".351" stop-color="#b2a8a0"/><stop offset=".504" stop-color="#c4bab2"/><stop offset=".631" stop-color="#d9cfc7"/><stop offset="1" stop-color="#e7dfe1"/></linearGradient><path fill="url(#d)" d="M.5 42.9L74.7 0l74.9 43.5L75 86.4 51.5 73.1l51.2-29.8-28.1-16.2-51.7 29.7"/><linearGradient id="e" gradientUnits="userSpaceOnUse" x1="-13.272" y1="122.557" x2="61.726" y2="-7.343"><stop offset=".003" stop-color="#a49a92"/><stop offset=".014" stop-color="#a59b93"/><stop offset=".347" stop-color="#cbc1b9"/><stop offset=".523" stop-color="#d9cfc7"/><stop offset=".651" stop-color="#dcd3cd"/><stop offset=".82" stop-color="#e5dddd"/><stop offset=".848" stop-color="#e7dfe1"/></linearGradient><path fill="url(#e)" d="M0 130.2l22.8-13.8V56.8l51.7-29.7V0L.1 42.9z"/><linearGradient id="f" gradientUnits="userSpaceOnUse" x1="131.113" y1="162.609" x2="18.926" y2="97.838"><stop offset="0" stop-color="#a69d94"/><stop offset=".003" stop-color="#a69d94"/><stop offset=".251" stop-color="#c2b9b0"/><stop offset=".468" stop-color="#d3c9c1"/><stop offset=".631" stop-color="#d9cfc7"/><stop offset="1" stop-color="#e7dfe1"/></linearGradient><path fill="url(#f)" d="M149.8 130.2l-23.4-13.6-51.3 29.8L23 116.3.2 130.2l74.7 43.3z"/></svg>